# xmcd CD database file
# Copyright (C) 1993-1998 Ti Kan
# 
# Track frame offsets:
#     150
#     7530
#     18942
#     33975
#     48192
#     62370
#     83465
#     96682
#     109355
#     119975
#     134447
#     147310
#     159670
# 
# Disc length: 2310 seconds
# 
# Revision: 1
# Processed by: cddbd v1.4b41PL1 Copyright (c) Steve Scherf et al.
# Submitted via: DiscPlay 4.0.4
# 
DISCID=a709040d
DTITLE=Kelly Tassone and Friends - Federal Country Rock 'N' Rodeo
DYEAR=1900
DGENRE=
TTITLE0=A Country Mile Away -Smoky Dawson
TTITLE1=Federal Country Rock'n'Rodeo -Kelly Tassone
TTITLE2=This Old Cowboy -Reg Lindsay
TTITLE3=Special Child -Ian MacKay
TTITLE4=Special Child -Kelly Tassone
TTITLE5=Crazy
TTITLE6=Murrumbidgee River -Dave O'Neill
TTITLE7=My Daddy -Kelly Tassone
TTITLE8=Chainsaw -Reg and Ros Lindsay
TTITLE9=True and Free -Kelly Tassone
TTITLE10=Truckies' Girl -Kelly Tassone
TTITLE11=Everybody Knows Why Evrybody Goes to Tamworth -Smoky Dawson
TTITLE12=Love You More Each Day
EXTD=
EXTT0=
EXTT1=
EXTT2=
EXTT3=
EXTT4=
EXTT5=
EXTT6=
EXTT7=
EXTT8=
EXTT9=
EXTT10=
EXTT11=
EXTT12=
PLAYORDER=
